HIERARCHY
ROOT Hips
{
	OFFSET 0.000000 0.000000 0.000000
	CHANNELS 6 Xposition Yposition Zposition Zrotation Yrotation Xrotation 
	JOINT LHipJoint
	{
		OFFSET 0.000000 0.000000 0.000000
		CHANNELS 3 Zrotation Yrotation Xrotation
		JOINT LeftUpLeg
		{
			OFFSET 8.178360 -10.767780 5.035740
			CHANNELS 3 Zrotation Yrotation Xrotation
			JOINT LeftLeg
			{
				OFFSET 14.688660 -40.356780 0.000000
				CHANNELS 3 Zrotation Yrotation Xrotation
				JOINT LeftFoot
				{
					OFFSET 15.373200 -42.237540 0.000000
					CHANNELS 3 Zrotation Yrotation Xrotation
					JOINT LeftToeBase
					{
						OFFSET 0.945840 -2.598660 13.935300
						CHANNELS 3 Zrotation Yrotation Xrotation
						End Site
						{
							OFFSET 0.000000 0.000000 0.000000
						}
					}
				}
			}
		}
	}
	JOINT RHipJoint
	{
		OFFSET 0.000000 0.000000 0.000000
		CHANNELS 3 Zrotation Yrotation Xrotation
		JOINT RightUpLeg
		{
			OFFSET -7.833120 -10.767780 5.035740
			CHANNELS 3 Zrotation Yrotation Xrotation
			JOINT RightLeg
			{
				OFFSET -15.255180 -41.913300 0.000000
				CHANNELS 3 Zrotation Yrotation Xrotation
				JOINT RightFoot
				{
					OFFSET -15.409560 -42.337380 0.000000
					CHANNELS 3 Zrotation Yrotation Xrotation
					JOINT RightToeBase
					{
						OFFSET -0.988380 -2.715540 14.178900
						CHANNELS 3 Zrotation Yrotation Xrotation
						End Site
						{
							OFFSET 0.000000 0.000000 0.000000
						}
					}
				}
			}
		}
	}
	JOINT LowerBack
	{
		OFFSET 0.000000 0.000000 0.000000
		CHANNELS 3 Zrotation Yrotation Xrotation
		JOINT Spine
		{
			OFFSET 0.169620 12.213540 -1.160280
			CHANNELS 3 Zrotation Yrotation Xrotation
			JOINT Spine1
			{
				OFFSET 0.340320 12.293100 -0.256500
				CHANNELS 3 Zrotation Yrotation Xrotation
				JOINT Neck
				{
					OFFSET 0.000000 0.000000 0.000000
					CHANNELS 3 Zrotation Yrotation Xrotation
					JOINT Neck1
					{
						OFFSET -0.325020 10.477440 1.032120
						CHANNELS 3 Zrotation Yrotation Xrotation
						JOINT Head
						{
							OFFSET 0.624420 10.568160 -0.743820
							CHANNELS 3 Zrotation Yrotation Xrotation
							End Site
							{
								OFFSET 0.000000 0.000000 0.000000
							}
						}
					}
				}
				JOINT LeftShoulder
				{
					OFFSET 0.000000 0.000000 0.000000
					CHANNELS 3 Zrotation Yrotation Xrotation
					JOINT LeftArm
					{
						OFFSET 20.174460 7.205340 -1.867260
						CHANNELS 3 Zrotation Yrotation Xrotation
						JOINT LeftForeArm
						{
							OFFSET 29.898000 -0.000000 -0.000000
							CHANNELS 3 Zrotation Yrotation Xrotation
							JOINT LeftHand
							{
								OFFSET 20.901360 -0.000000 -0.000000
								CHANNELS 3 Zrotation Yrotation Xrotation
								JOINT LeftFingerBase
								{
									OFFSET 0.000000 0.000000 0.000000
									CHANNELS 3 Zrotation Yrotation Xrotation
									JOINT LeftHandIndex1
									{
										OFFSET 4.291560 -0.000000 -0.000000
										CHANNELS 3 Zrotation Yrotation Xrotation
										End Site
										{
											OFFSET 0.000000 0.000000 0.000000
										}
									}
								}
								JOINT LThumb
								{
									OFFSET 0.000000 0.000000 0.000000
									CHANNELS 3 Zrotation Yrotation Xrotation
									End Site
									{
										OFFSET 0.000000 0.000000 0.000000
									}
								}
							}
						}
					}
				}
				JOINT RightShoulder
				{
					OFFSET 0.000000 0.000000 0.000000
					CHANNELS 3 Zrotation Yrotation Xrotation
					JOINT RightArm
					{
						OFFSET -18.819600 8.244300 -2.427900
						CHANNELS 3 Zrotation Yrotation Xrotation
						JOINT RightForeArm
						{
							OFFSET -31.451400 -0.000000 -0.000000
							CHANNELS 3 Zrotation Yrotation Xrotation
							JOINT RightHand
							{
								OFFSET -20.665020 -0.000000 -0.000000
								CHANNELS 3 Zrotation Yrotation Xrotation
								JOINT RightFingerBase
								{
									OFFSET 0.000000 0.000000 0.000000
									CHANNELS 3 Zrotation Yrotation Xrotation
									JOINT RightHandIndex1
									{
										OFFSET -3.735180 -0.000000 -0.000000
										CHANNELS 3 Zrotation Yrotation Xrotation
										End Site
										{
											OFFSET 0.000000 0.000000 0.000000
										}
									}
								}
								JOINT RThumb
								{
									OFFSET 0.000000 0.000000 0.000000
									CHANNELS 3 Zrotation Yrotation Xrotation
									End Site
									{
										OFFSET 0.000000 0.000000 0.000000
									}
								}
							}
						}
					}
				}
			}
		}
	}
}
MOTION
Frames:	5
Frame Time:	0.0333333
-42.990558 106.250796 50.942496 -176.380398 38.135517 -178.234359 -2.821906 2.145364 2.999433 3.663209 -17.501511 -5.799398 -0.063181 7.599014 21.827308 2.107774 -8.247564 6.016363 0.826800 -5.801200 -16.208800 1.356041 -1.632529 1.758812 10.073588 7.139534 -3.729938 -0.659155 -7.599714 22.159382 -2.377305 8.625402 -1.881419 -0.769100 5.599900 -15.627900 -0.875975 1.201447 10.446690 1.619058 1.719323 0.474679 1.297530 0.736572 -5.230215 -11.432003 -8.303206 -12.612188 6.913748 -8.979657 19.930181 4.288200 -4.121400 14.556400 -6.214467 -0.987302 -1.659716 -77.339660 4.739713 13.311613 18.261171 -26.405572 -5.393443 -1.032231 -2.668833 3.517773 16.219841 22.700379 7.526800 -7.125000 0.000000 0.000000 -13.633300 55.898500 -3.694400 5.116081 1.725741 -1.145650 83.439349 -2.988337 12.817730 -18.931008 27.613669 -5.157959 0.626226 -0.005675 7.095205 -19.979316 4.212630 -1.547100 7.125000 0.000000 0.000000 4.553900 -25.576600 2.148100 
-41.017122 106.884966 52.836510 -176.808844 36.166805 -178.350439 -2.857404 2.018880 2.729798 3.619982 -17.799444 -6.851854 0.154053 8.096229 23.179493 1.013822 -2.519278 6.849232 0.895000 -6.029600 -16.870300 1.469292 -1.594687 1.821624 11.406905 6.133414 -3.728998 -0.601585 -7.439626 21.808199 -2.115709 7.368801 -1.857424 -0.581900 4.884600 -13.579700 -1.240459 1.175780 10.333991 1.518906 1.635780 0.604710 1.240246 0.713367 -4.817532 -11.126682 -8.223155 -12.960392 6.817145 -8.915688 19.835151 4.171100 -4.059200 14.529600 -6.262278 -0.966111 -1.662327 -77.896479 4.825168 12.382190 17.924358 -25.961553 -5.185068 -1.330774 -2.281908 5.536560 19.111103 19.143409 7.705700 -7.125000 0.000000 0.000000 -8.771000 52.579200 -1.646300 5.141559 1.704566 -1.125779 83.376814 -2.044692 13.105543 -18.678806 27.330102 -5.046614 0.554113 -0.063521 8.670307 -18.595162 5.384059 -1.853000 7.125000 0.000000 0.000000 5.613500 -24.325800 2.815700 
-39.341976 107.373624 54.485586 -176.692024 34.438898 -178.270684 -2.884600 1.848225 2.428507 3.053090 -16.314816 -8.666713 0.673524 9.017370 25.706947 -0.479634 4.071885 6.655427 0.049800 -1.440800 -3.962500 1.579580 -1.540192 1.903261 12.814350 4.719507 -3.724476 -0.491105 -7.094828 20.972250 -2.049202 7.250024 -1.369805 -0.348300 3.791800 -10.491700 -0.748676 1.255019 10.521862 1.547840 1.810301 0.635699 0.975303 0.815220 -4.821473 -11.407450 -8.351520 -12.856327 6.746873 -8.994698 19.757076 4.181700 -4.136200 14.493000 -6.297870 -0.921003 -1.678604 -78.560274 5.155473 13.342310 17.629804 -25.546296 -5.010227 -1.380919 -2.262004 5.840386 19.452804 18.985889 7.804100 -7.125000 0.000000 0.000000 -8.329800 52.474300 -1.541000 5.140568 1.714689 -1.106607 82.884136 -1.764760 13.795631 -18.782420 27.462816 -5.099837 0.564620 -0.061749 8.116691 -18.821539 5.473076 -1.909400 7.125000 0.000000 0.000000 5.435400 -24.222200 2.738600 
-37.919040 107.616138 55.938228 -177.102986 33.203067 -178.457633 -2.997319 1.665605 2.244762 1.158334 -13.520848 -10.402413 1.228293 9.981750 28.558585 -1.875780 9.269074 2.297273 0.001100 0.218700 0.601000 1.687528 -1.468834 1.938892 13.618226 4.051891 -3.943932 -0.489139 -7.046523 20.927701 -1.927223 6.668122 -1.476729 -0.287900 3.450500 -9.535500 -0.463265 1.427147 10.656994 1.431489 2.066811 0.647604 0.469289 0.963205 -4.823834 -11.272305 -8.286010 -12.895839 6.530620 -8.895060 19.786125 4.078200 -4.099100 14.479900 -6.328170 -0.906834 -1.685037 -78.989499 5.253623 14.149787 17.431543 -25.248738 -4.913578 -0.931203 -2.560659 6.959358 13.605864 21.720563 5.981300 -7.125000 0.000000 0.000000 -16.006000 54.324200 -3.740200 5.113158 1.715574 -1.109460 82.578911 -1.736262 14.621711 -19.265851 28.072788 -5.355896 0.568125 -0.032919 7.294872 -18.849085 5.186854 -1.804600 7.125000 0.000000 0.000000 5.421300 -24.545300 2.690800 
-36.537336 107.803476 57.111978 -177.658749 31.613422 -178.864902 -3.134272 1.442369 2.143443 -1.442603 -10.775690 -11.997798 1.708636 10.803012 31.353578 -1.808317 8.918905 -1.126684 0.004900 -0.450000 -1.236500 1.777999 -1.382933 1.949041 14.243380 3.627859 -4.125261 -0.606042 -7.280772 21.693028 -1.760336 5.767392 -2.133406 -0.159200 2.570900 -7.086300 -0.446187 1.484216 10.817817 1.345695 2.126310 0.586310 0.238067 1.017397 -5.034801 -11.432242 -8.325970 -12.616576 6.642572 -8.893084 19.953787 4.178000 -4.088800 14.528600 -6.311503 -0.825250 -1.726464 -79.615416 6.117247 15.002784 17.567058 -25.417946 -4.982381 -1.228246 -2.308873 7.273585 17.279876 19.453813 7.002000 -7.125000 0.000000 0.000000 -10.915100 52.593400 -2.059600 5.050540 1.716930 -1.118254 82.043396 -2.505886 15.757160 -20.048429 29.042249 -5.781361 0.568743 0.017844 5.968180 -18.765726 4.666774 -1.601100 7.125000 0.000000 0.000000 5.500200 -25.135800 2.654700 
